# xmcd
# Track frame offsets:
# 183
# 14743
# 29388
# 43535
# 56000
# 70175
# 86740
# 106443
# 123395
# 138275
# 152338
# 167240
# 184598
#
# Disc length: 2729 seconds
# Revision: 0
# Processed by: cddbd v1.4PL0 Copyright (c) Steve Scherf et al.
# Submitted via: VisiTrax 2.9.5.180 - For more info visit www.synapsa.com
#
DISCID=ac0aa70d
DTITLE=Peter Viskinde - Blue Angel
DYEAR=1995
DGENRE=Blues
TTITLE0=Blue angel
TTITLE1=Corina, corina
TTITLE2=Name and number
TTITLE3=Dance to the beat
TTITLE4=The days are comming
TTITLE5=Let me be your man
TTITLE6=Wrong site of the city
TTITLE7=Don't ever leave me
TTITLE8=She belongs to me
TTITLE9=Boomer's Story
TTITLE10=Join the hobos union
TTITLE11=Talk me higheer
TTITLE12=Till the end
EXTD=
EXTT0=
EXTT1=
EXTT2=
EXTT3=
EXTT4=
EXTT5=
EXTT6=
EXTT7=
EXTT8=
EXTT9=
EXTT10=
EXTT11=
EXTT12=
PLAYORDER=
